<mxfile host="app.diagrams.net" modified="2021-01-31T19:42:52.283Z" agent="5.0 (Windows NT 10.0; Win64; x64) AppleWebKit/537.36 (KHTML, like Gecko) Chrome/87.0.4280.141 Safari/537.36" etag="6bAM-Pc_gBLImkkvLHnJ" version="14.2.6" type="github">
  <diagram id="sVR1oTdYSU8NeBDIGIT6" name="Page-1">
    <mxGraphModel dx="1449" dy="663" grid="1" gridSize="10" guides="1" tooltips="1" connect="1" arrows="1" fold="1" page="1" pageScale="1" pageWidth="850" pageHeight="1100" math="0" shadow="0">
      <root>
        <mxCell id="0" />
        <mxCell id="1" parent="0" />
        <mxCell id="jB7B3gS2v9Q8qId17xF3-4" value="" style="rounded=0;whiteSpace=wrap;html=1;" parent="1" vertex="1">
          <mxGeometry x="230" y="10" width="600" height="700" as="geometry" />
        </mxCell>
        <mxCell id="5tiNl1Z9Ind5bCb4qitX-32" value="" style="ellipse;whiteSpace=wrap;html=1;" vertex="1" parent="1">
          <mxGeometry x="265" y="210" width="90" height="55" as="geometry" />
        </mxCell>
        <mxCell id="5tiNl1Z9Ind5bCb4qitX-24" value="" style="ellipse;whiteSpace=wrap;html=1;" vertex="1" parent="1">
          <mxGeometry x="290" y="545" width="90" height="55" as="geometry" />
        </mxCell>
        <mxCell id="5tiNl1Z9Ind5bCb4qitX-10" value="" style="rounded=0;whiteSpace=wrap;html=1;" vertex="1" parent="1">
          <mxGeometry x="410" y="455" width="150" height="125" as="geometry" />
        </mxCell>
        <mxCell id="jB7B3gS2v9Q8qId17xF3-7" style="edgeStyle=orthogonalEdgeStyle;rounded=0;orthogonalLoop=1;jettySize=auto;html=1;entryX=0;entryY=0.5;entryDx=0;entryDy=0;" parent="1" source="jB7B3gS2v9Q8qId17xF3-1" target="jB7B3gS2v9Q8qId17xF3-6" edge="1">
          <mxGeometry relative="1" as="geometry" />
        </mxCell>
        <mxCell id="jB7B3gS2v9Q8qId17xF3-1" value="Staff&lt;br&gt;" style="shape=umlActor;verticalLabelPosition=bottom;verticalAlign=top;html=1;outlineConnect=0;" parent="1" vertex="1">
          <mxGeometry x="30" y="110" width="30" height="60" as="geometry" />
        </mxCell>
        <mxCell id="jB7B3gS2v9Q8qId17xF3-5" value="" style="ellipse;shape=cloud;whiteSpace=wrap;html=1;" parent="1" vertex="1">
          <mxGeometry x="90" y="100" width="120" height="80" as="geometry" />
        </mxCell>
        <mxCell id="jB7B3gS2v9Q8qId17xF3-6" value="Internet" style="text;html=1;strokeColor=none;fillColor=none;align=center;verticalAlign=middle;whiteSpace=wrap;rounded=0;" parent="1" vertex="1">
          <mxGeometry x="130" y="130" width="40" height="20" as="geometry" />
        </mxCell>
        <mxCell id="jB7B3gS2v9Q8qId17xF3-14" style="edgeStyle=orthogonalEdgeStyle;rounded=0;orthogonalLoop=1;jettySize=auto;html=1;entryX=0.5;entryY=0;entryDx=0;entryDy=0;" parent="1" edge="1">
          <mxGeometry relative="1" as="geometry">
            <mxPoint x="310" y="165" as="sourcePoint" />
            <mxPoint x="310" y="210" as="targetPoint" />
          </mxGeometry>
        </mxCell>
        <mxCell id="jB7B3gS2v9Q8qId17xF3-13" value="Verification Failed" style="text;html=1;strokeColor=none;fillColor=none;align=center;verticalAlign=middle;whiteSpace=wrap;rounded=0;" parent="1" vertex="1">
          <mxGeometry x="290" y="230" width="40" height="20" as="geometry" />
        </mxCell>
        <mxCell id="jB7B3gS2v9Q8qId17xF3-16" value="" style="rounded=0;whiteSpace=wrap;html=1;" parent="1" vertex="1">
          <mxGeometry x="420" y="30" width="150" height="100" as="geometry" />
        </mxCell>
        <mxCell id="jB7B3gS2v9Q8qId17xF3-18" value="&lt;h1&gt;&lt;span style=&quot;font-size: 12px&quot;&gt;Maintain Course Records&lt;/span&gt;&lt;/h1&gt;&lt;p&gt;Course ID&lt;br&gt;Course Name&lt;br&gt;Credit Hours&lt;br&gt;Description&lt;/p&gt;" style="text;html=1;strokeColor=none;fillColor=none;spacing=5;spacingTop=-20;whiteSpace=wrap;overflow=hidden;rounded=0;" parent="1" vertex="1">
          <mxGeometry x="420" y="20" width="160" height="110" as="geometry" />
        </mxCell>
        <mxCell id="jB7B3gS2v9Q8qId17xF3-19" value="" style="endArrow=classic;html=1;entryX=0;entryY=0.5;entryDx=0;entryDy=0;" parent="1" target="jB7B3gS2v9Q8qId17xF3-16" edge="1">
          <mxGeometry width="50" height="50" relative="1" as="geometry">
            <mxPoint x="360" y="140" as="sourcePoint" />
            <mxPoint x="410" y="90" as="targetPoint" />
          </mxGeometry>
        </mxCell>
        <mxCell id="jB7B3gS2v9Q8qId17xF3-20" value="" style="rounded=0;whiteSpace=wrap;html=1;" parent="1" vertex="1">
          <mxGeometry x="410" y="230" width="150" height="80" as="geometry" />
        </mxCell>
        <mxCell id="jB7B3gS2v9Q8qId17xF3-21" value="&lt;h1&gt;&lt;span style=&quot;font-size: 12px&quot;&gt;Maintain Class Records&lt;/span&gt;&lt;/h1&gt;&lt;div&gt;&lt;span style=&quot;font-size: 12px&quot;&gt;Class ID&lt;/span&gt;&lt;/div&gt;&lt;div&gt;&lt;span style=&quot;font-size: 12px&quot;&gt;Class Begin Date&lt;/span&gt;&lt;/div&gt;&lt;div&gt;&lt;span style=&quot;font-size: 12px&quot;&gt;Class End Date&lt;/span&gt;&lt;/div&gt;" style="text;html=1;strokeColor=none;fillColor=none;spacing=5;spacingTop=-20;whiteSpace=wrap;overflow=hidden;rounded=0;" parent="1" vertex="1">
          <mxGeometry x="410" y="212.5" width="150" height="95" as="geometry" />
        </mxCell>
        <mxCell id="jB7B3gS2v9Q8qId17xF3-22" value="" style="endArrow=classic;html=1;entryX=0;entryY=0.5;entryDx=0;entryDy=0;" parent="1" target="jB7B3gS2v9Q8qId17xF3-20" edge="1">
          <mxGeometry width="50" height="50" relative="1" as="geometry">
            <mxPoint x="360" y="140" as="sourcePoint" />
            <mxPoint x="740" y="180" as="targetPoint" />
          </mxGeometry>
        </mxCell>
        <mxCell id="jB7B3gS2v9Q8qId17xF3-23" value="" style="endArrow=classic;html=1;entryX=0;entryY=0.5;entryDx=0;entryDy=0;exitX=1;exitY=0.25;exitDx=0;exitDy=0;" parent="1" source="jB7B3gS2v9Q8qId17xF3-21" target="jB7B3gS2v9Q8qId17xF3-24" edge="1">
          <mxGeometry width="50" height="50" relative="1" as="geometry">
            <mxPoint x="570" y="200" as="sourcePoint" />
            <mxPoint x="590" y="180" as="targetPoint" />
          </mxGeometry>
        </mxCell>
        <mxCell id="jB7B3gS2v9Q8qId17xF3-24" value="" style="rounded=0;whiteSpace=wrap;html=1;" parent="1" vertex="1">
          <mxGeometry x="630" y="150" width="150" height="70" as="geometry" />
        </mxCell>
        <mxCell id="jB7B3gS2v9Q8qId17xF3-25" value="&lt;h1&gt;&lt;span style=&quot;font-size: 12px&quot;&gt;Online Class&lt;/span&gt;&lt;/h1&gt;&lt;div&gt;&lt;span style=&quot;font-size: 12px&quot;&gt;Class URL&lt;/span&gt;&lt;/div&gt;&lt;div&gt;&lt;span style=&quot;font-size: 12px&quot;&gt;Class Browser&lt;/span&gt;&lt;/div&gt;" style="text;html=1;strokeColor=none;fillColor=none;spacing=5;spacingTop=-20;whiteSpace=wrap;overflow=hidden;rounded=0;" parent="1" vertex="1">
          <mxGeometry x="630" y="140" width="150" height="80" as="geometry" />
        </mxCell>
        <mxCell id="jB7B3gS2v9Q8qId17xF3-27" value="" style="rounded=0;whiteSpace=wrap;html=1;" parent="1" vertex="1">
          <mxGeometry x="634" y="320" width="150" height="80" as="geometry" />
        </mxCell>
        <mxCell id="jB7B3gS2v9Q8qId17xF3-28" value="&lt;h1&gt;&lt;span style=&quot;font-size: 12px&quot;&gt;On Campus Class&lt;/span&gt;&lt;/h1&gt;&lt;div&gt;&lt;span style=&quot;font-size: 12px&quot;&gt;Class Building&lt;/span&gt;&lt;/div&gt;&lt;div&gt;&lt;span style=&quot;font-size: 12px&quot;&gt;Class Room&lt;/span&gt;&lt;/div&gt;" style="text;html=1;strokeColor=none;fillColor=none;spacing=5;spacingTop=-20;whiteSpace=wrap;overflow=hidden;rounded=0;" parent="1" vertex="1">
          <mxGeometry x="634" y="310" width="150" height="80" as="geometry" />
        </mxCell>
        <mxCell id="jB7B3gS2v9Q8qId17xF3-31" style="edgeStyle=orthogonalEdgeStyle;rounded=0;orthogonalLoop=1;jettySize=auto;html=1;exitX=0.5;exitY=1;exitDx=0;exitDy=0;" parent="1" source="jB7B3gS2v9Q8qId17xF3-21" target="jB7B3gS2v9Q8qId17xF3-21" edge="1">
          <mxGeometry relative="1" as="geometry" />
        </mxCell>
        <mxCell id="jB7B3gS2v9Q8qId17xF3-58" value="" style="rounded=0;whiteSpace=wrap;html=1;" parent="1" vertex="1">
          <mxGeometry x="630" y="220" width="150" height="80" as="geometry" />
        </mxCell>
        <mxCell id="jB7B3gS2v9Q8qId17xF3-59" value="Operations:" style="text;html=1;strokeColor=none;fillColor=none;align=center;verticalAlign=middle;whiteSpace=wrap;rounded=0;" parent="1" vertex="1">
          <mxGeometry x="647" y="222" width="40" height="20" as="geometry" />
        </mxCell>
        <mxCell id="jB7B3gS2v9Q8qId17xF3-60" value="Attributes:" style="text;html=1;strokeColor=none;fillColor=none;align=center;verticalAlign=middle;whiteSpace=wrap;rounded=0;" parent="1" vertex="1">
          <mxGeometry x="643" y="170" width="40" height="20" as="geometry" />
        </mxCell>
        <mxCell id="jB7B3gS2v9Q8qId17xF3-61" value="Create&lt;br&gt;Read&lt;br&gt;Update&lt;br&gt;Delete" style="text;html=1;strokeColor=none;fillColor=none;align=left;verticalAlign=middle;whiteSpace=wrap;rounded=0;" parent="1" vertex="1">
          <mxGeometry x="634" y="260" width="40" height="20" as="geometry" />
        </mxCell>
        <mxCell id="jB7B3gS2v9Q8qId17xF3-62" value="Attributes:" style="text;html=1;strokeColor=none;fillColor=none;align=center;verticalAlign=middle;whiteSpace=wrap;rounded=0;" parent="1" vertex="1">
          <mxGeometry x="432" y="50" width="40" height="20" as="geometry" />
        </mxCell>
        <mxCell id="jB7B3gS2v9Q8qId17xF3-65" value="" style="rounded=0;whiteSpace=wrap;html=1;" parent="1" vertex="1">
          <mxGeometry x="420" y="130" width="150" height="80" as="geometry" />
        </mxCell>
        <mxCell id="jB7B3gS2v9Q8qId17xF3-66" value="Create&lt;br&gt;Read&lt;br&gt;Update&lt;br&gt;Delete" style="text;html=1;strokeColor=none;fillColor=none;align=left;verticalAlign=middle;whiteSpace=wrap;rounded=0;" parent="1" vertex="1">
          <mxGeometry x="424" y="170" width="40" height="20" as="geometry" />
        </mxCell>
        <mxCell id="jB7B3gS2v9Q8qId17xF3-67" value="Operations:" style="text;html=1;strokeColor=none;fillColor=none;align=center;verticalAlign=middle;whiteSpace=wrap;rounded=0;" parent="1" vertex="1">
          <mxGeometry x="437" y="133" width="40" height="20" as="geometry" />
        </mxCell>
        <mxCell id="jB7B3gS2v9Q8qId17xF3-68" value="" style="rounded=0;whiteSpace=wrap;html=1;" parent="1" vertex="1">
          <mxGeometry x="410" y="310" width="150" height="80" as="geometry" />
        </mxCell>
        <mxCell id="jB7B3gS2v9Q8qId17xF3-69" value="Operations:" style="text;html=1;strokeColor=none;fillColor=none;align=center;verticalAlign=middle;whiteSpace=wrap;rounded=0;" parent="1" vertex="1">
          <mxGeometry x="427" y="312" width="40" height="20" as="geometry" />
        </mxCell>
        <mxCell id="jB7B3gS2v9Q8qId17xF3-70" value="Create&lt;br&gt;Read&lt;br&gt;Update&lt;br&gt;Delete" style="text;html=1;strokeColor=none;fillColor=none;align=left;verticalAlign=middle;whiteSpace=wrap;rounded=0;" parent="1" vertex="1">
          <mxGeometry x="414" y="350" width="40" height="20" as="geometry" />
        </mxCell>
        <mxCell id="jB7B3gS2v9Q8qId17xF3-71" value="" style="rounded=0;whiteSpace=wrap;html=1;" parent="1" vertex="1">
          <mxGeometry x="634" y="400" width="150" height="80" as="geometry" />
        </mxCell>
        <mxCell id="jB7B3gS2v9Q8qId17xF3-72" value="Operations:" style="text;html=1;strokeColor=none;fillColor=none;align=center;verticalAlign=middle;whiteSpace=wrap;rounded=0;" parent="1" vertex="1">
          <mxGeometry x="651" y="402" width="40" height="20" as="geometry" />
        </mxCell>
        <mxCell id="jB7B3gS2v9Q8qId17xF3-73" value="Create&lt;br&gt;Read&lt;br&gt;Update&lt;br&gt;Delete" style="text;html=1;strokeColor=none;fillColor=none;align=left;verticalAlign=middle;whiteSpace=wrap;rounded=0;" parent="1" vertex="1">
          <mxGeometry x="638" y="440" width="40" height="20" as="geometry" />
        </mxCell>
        <mxCell id="jB7B3gS2v9Q8qId17xF3-74" value="Attributes:" style="text;html=1;strokeColor=none;fillColor=none;align=center;verticalAlign=middle;whiteSpace=wrap;rounded=0;" parent="1" vertex="1">
          <mxGeometry x="420" y="245" width="40" height="20" as="geometry" />
        </mxCell>
        <mxCell id="jB7B3gS2v9Q8qId17xF3-75" value="Attributes:" style="text;html=1;strokeColor=none;fillColor=none;align=center;verticalAlign=middle;whiteSpace=wrap;rounded=0;" parent="1" vertex="1">
          <mxGeometry x="647" y="340" width="40" height="20" as="geometry" />
        </mxCell>
        <mxCell id="jB7B3gS2v9Q8qId17xF3-76" value="" style="endArrow=classic;html=1;exitX=1;exitY=0.5;exitDx=0;exitDy=0;entryX=0;entryY=0.75;entryDx=0;entryDy=0;" parent="1" source="jB7B3gS2v9Q8qId17xF3-68" target="jB7B3gS2v9Q8qId17xF3-28" edge="1">
          <mxGeometry width="50" height="50" relative="1" as="geometry">
            <mxPoint x="400" y="370" as="sourcePoint" />
            <mxPoint x="450" y="320" as="targetPoint" />
          </mxGeometry>
        </mxCell>
        <mxCell id="5tiNl1Z9Ind5bCb4qitX-5" value="&lt;h1&gt;&lt;span style=&quot;font-size: 12px&quot;&gt;Register Student for class&lt;/span&gt;&lt;/h1&gt;&lt;div&gt;No duplicates&lt;/div&gt;&lt;div&gt;If GPA less than 3.5, no more than three classes a semester&lt;/div&gt;&lt;div&gt;Online hardware and software requirements met&lt;/div&gt;" style="text;html=1;strokeColor=none;fillColor=none;spacing=5;spacingTop=-20;whiteSpace=wrap;overflow=hidden;rounded=0;" vertex="1" parent="1">
          <mxGeometry x="405" y="440" width="160" height="140" as="geometry" />
        </mxCell>
        <mxCell id="5tiNl1Z9Ind5bCb4qitX-6" value="" style="rounded=0;whiteSpace=wrap;html=1;" vertex="1" parent="1">
          <mxGeometry x="410" y="580" width="150" height="80" as="geometry" />
        </mxCell>
        <mxCell id="5tiNl1Z9Ind5bCb4qitX-7" value="Operations:" style="text;html=1;strokeColor=none;fillColor=none;align=center;verticalAlign=middle;whiteSpace=wrap;rounded=0;" vertex="1" parent="1">
          <mxGeometry x="425" y="582.5" width="40" height="20" as="geometry" />
        </mxCell>
        <mxCell id="5tiNl1Z9Ind5bCb4qitX-8" value="Create&lt;br&gt;Read&lt;br&gt;Update&lt;br&gt;Delete" style="text;html=1;strokeColor=none;fillColor=none;align=left;verticalAlign=middle;whiteSpace=wrap;rounded=0;" vertex="1" parent="1">
          <mxGeometry x="414" y="620" width="40" height="20" as="geometry" />
        </mxCell>
        <mxCell id="5tiNl1Z9Ind5bCb4qitX-9" value="Attributes:" style="text;html=1;strokeColor=none;fillColor=none;align=center;verticalAlign=middle;whiteSpace=wrap;rounded=0;" vertex="1" parent="1">
          <mxGeometry x="420" y="470" width="40" height="20" as="geometry" />
        </mxCell>
        <mxCell id="5tiNl1Z9Ind5bCb4qitX-13" style="edgeStyle=orthogonalEdgeStyle;rounded=0;orthogonalLoop=1;jettySize=auto;html=1;entryX=0;entryY=0.5;entryDx=0;entryDy=0;" edge="1" parent="1" source="5tiNl1Z9Ind5bCb4qitX-14" target="5tiNl1Z9Ind5bCb4qitX-17">
          <mxGeometry relative="1" as="geometry" />
        </mxCell>
        <mxCell id="5tiNl1Z9Ind5bCb4qitX-14" value="Student" style="shape=umlActor;verticalLabelPosition=bottom;verticalAlign=top;html=1;outlineConnect=0;" vertex="1" parent="1">
          <mxGeometry x="30" y="545" width="30" height="60" as="geometry" />
        </mxCell>
        <mxCell id="5tiNl1Z9Ind5bCb4qitX-15" style="edgeStyle=orthogonalEdgeStyle;rounded=0;orthogonalLoop=1;jettySize=auto;html=1;exitX=0.875;exitY=0.5;exitDx=0;exitDy=0;exitPerimeter=0;" edge="1" parent="1" source="5tiNl1Z9Ind5bCb4qitX-16">
          <mxGeometry relative="1" as="geometry">
            <mxPoint x="290" y="575" as="targetPoint" />
          </mxGeometry>
        </mxCell>
        <mxCell id="5tiNl1Z9Ind5bCb4qitX-16" value="" style="ellipse;shape=cloud;whiteSpace=wrap;html=1;" vertex="1" parent="1">
          <mxGeometry x="90" y="535" width="120" height="80" as="geometry" />
        </mxCell>
        <mxCell id="5tiNl1Z9Ind5bCb4qitX-17" value="Internet" style="text;html=1;strokeColor=none;fillColor=none;align=center;verticalAlign=middle;whiteSpace=wrap;rounded=0;" vertex="1" parent="1">
          <mxGeometry x="130" y="565" width="40" height="20" as="geometry" />
        </mxCell>
        <mxCell id="5tiNl1Z9Ind5bCb4qitX-20" style="edgeStyle=orthogonalEdgeStyle;rounded=0;orthogonalLoop=1;jettySize=auto;html=1;entryX=0.5;entryY=0;entryDx=0;entryDy=0;" edge="1" parent="1">
          <mxGeometry relative="1" as="geometry">
            <mxPoint x="335" y="600" as="sourcePoint" />
            <mxPoint x="335" y="645" as="targetPoint" />
          </mxGeometry>
        </mxCell>
        <mxCell id="5tiNl1Z9Ind5bCb4qitX-21" value="User Verification" style="text;html=1;strokeColor=none;fillColor=none;align=center;verticalAlign=middle;whiteSpace=wrap;rounded=0;" vertex="1" parent="1">
          <mxGeometry x="315" y="562.5" width="40" height="20" as="geometry" />
        </mxCell>
        <mxCell id="5tiNl1Z9Ind5bCb4qitX-27" value="" style="endArrow=classic;html=1;entryX=0;entryY=0.75;entryDx=0;entryDy=0;" edge="1" parent="1" target="5tiNl1Z9Ind5bCb4qitX-5">
          <mxGeometry width="50" height="50" relative="1" as="geometry">
            <mxPoint x="380" y="570" as="sourcePoint" />
            <mxPoint x="430" y="520" as="targetPoint" />
          </mxGeometry>
        </mxCell>
        <mxCell id="5tiNl1Z9Ind5bCb4qitX-28" value="" style="endArrow=classic;html=1;exitX=1;exitY=0.5;exitDx=0;exitDy=0;entryX=0;entryY=0.5;entryDx=0;entryDy=0;" edge="1" parent="1" source="5tiNl1Z9Ind5bCb4qitX-29" target="5tiNl1Z9Ind5bCb4qitX-5">
          <mxGeometry width="50" height="50" relative="1" as="geometry">
            <mxPoint x="360" y="165" as="sourcePoint" />
            <mxPoint x="780" y="360" as="targetPoint" />
          </mxGeometry>
        </mxCell>
        <mxCell id="5tiNl1Z9Ind5bCb4qitX-29" value="" style="ellipse;whiteSpace=wrap;html=1;" vertex="1" parent="1">
          <mxGeometry x="270" y="115" width="90" height="55" as="geometry" />
        </mxCell>
        <mxCell id="5tiNl1Z9Ind5bCb4qitX-30" value="User Verification" style="text;html=1;strokeColor=none;fillColor=none;align=center;verticalAlign=middle;whiteSpace=wrap;rounded=0;" vertex="1" parent="1">
          <mxGeometry x="295" y="132.5" width="40" height="20" as="geometry" />
        </mxCell>
        <mxCell id="5tiNl1Z9Ind5bCb4qitX-31" value="" style="endArrow=classic;html=1;entryX=0;entryY=0.5;entryDx=0;entryDy=0;" edge="1" parent="1" target="5tiNl1Z9Ind5bCb4qitX-29">
          <mxGeometry width="50" height="50" relative="1" as="geometry">
            <mxPoint x="200" y="143" as="sourcePoint" />
            <mxPoint x="250" y="90" as="targetPoint" />
          </mxGeometry>
        </mxCell>
        <mxCell id="5tiNl1Z9Ind5bCb4qitX-33" value="" style="ellipse;whiteSpace=wrap;html=1;" vertex="1" parent="1">
          <mxGeometry x="290" y="646" width="90" height="55" as="geometry" />
        </mxCell>
        <mxCell id="5tiNl1Z9Ind5bCb4qitX-34" value="Verification Failed" style="text;html=1;strokeColor=none;fillColor=none;align=center;verticalAlign=middle;whiteSpace=wrap;rounded=0;" vertex="1" parent="1">
          <mxGeometry x="315" y="666" width="40" height="20" as="geometry" />
        </mxCell>
      </root>
    </mxGraphModel>
  </diagram>
</mxfile>
